<svg width="30" height="30" viewBox="0 0 30 30" fill="none" xmlns="http://www.w3.org/2000/svg">
<path d="M8.2 19.4L7.6 20.2L9.2 21.4L9.8 20.6L8.2 19.4ZM20.2 20.6L20.8 21.4L22.4 20.2L21.8 19.4L20.2 20.6ZM15 28C7.8203 28 2 22.1797 2 15H0C0 23.2843 6.71573 30 15 30V28ZM28 15C28 22.1797 22.1797 28 15 28V30C23.2843 30 30 23.2843 30 15H28ZM15 2C22.1797 2 28 7.8203 28 15H30C30 6.71573 23.2843 0 15 0V2ZM15 0C6.71573 0 0 6.71573 0 15H2C2 7.8203 7.8203 2 15 2V0ZM8 12H10V10H8V12ZM20 12H22V10H20V12ZM21.8 19.4C18.4 14.8667 11.6 14.8667 8.2 19.4L9.8 20.6C12.4 17.1333 17.6 17.1333 20.2 20.6L21.8 19.4Z" fill="#D90404"/>
</svg>
