<svg width="25" height="30" viewBox="0 0 25 30" fill="none" xmlns="http://www.w3.org/2000/svg">
<path d="M10.5833 21L12.5 19L14.4167 21M1 19.7639V13C1 6.37258 6.14873 1 12.5 1C18.8513 1 24 6.37258 24 13V19.7639C24 20.5215 23.5898 21.214 22.9405 21.5528L20.1667 23V25C20.1667 27.2091 18.4504 29 16.3333 29H8.66667C6.54958 29 4.83333 27.2091 4.83333 25V23L2.05951 21.5528C1.41017 21.214 1 20.5215 1 19.7639ZM6.75 17C5.69145 17 4.83333 16.1046 4.83333 15C4.83333 13.8954 5.69145 13 6.75 13C7.80855 13 8.66667 13.8954 8.66667 15C8.66667 16.1046 7.80855 17 6.75 17ZM18.25 17C17.1915 17 16.3333 16.1046 16.3333 15C16.3333 13.8954 17.1915 13 18.25 13C19.3085 13 20.1667 13.8954 20.1667 15C20.1667 16.1046 19.3085 17 18.25 17Z" stroke="#260389" stroke-width="2"/>
</svg>
