<svg width="30" height="30" viewBox="0 0 30 30" fill="none" xmlns="http://www.w3.org/2000/svg">
<path d="M9.8 17.4L9.2 16.6L7.6 17.8L8.2 18.6L9.8 17.4ZM21.8 18.6L22.4 17.8L20.8 16.6L20.2 17.4L21.8 18.6ZM15 28C7.8203 28 2 22.1797 2 15H0C0 23.2843 6.71573 30 15 30V28ZM28 15C28 22.1797 22.1797 28 15 28V30C23.2843 30 30 23.2843 30 15H28ZM15 2C22.1797 2 28 7.8203 28 15H30C30 6.71573 23.2843 0 15 0V2ZM15 0C6.71573 0 0 6.71573 0 15H2C2 7.8203 7.8203 2 15 2V0ZM8 12H10V10H8V12ZM20 12H22V10H20V12ZM20.2 17.4C17.6 20.8667 12.4 20.8667 9.8 17.4L8.2 18.6C11.6 23.1333 18.4 23.1333 21.8 18.6L20.2 17.4Z" fill="#06B82D"/>
</svg>
