<svg width="15" height="13" viewBox="0 0 15 13" fill="none" xmlns="http://www.w3.org/2000/svg">
<path d="M7.5 12.5L7.14645 12.8536C7.34171 13.0488 7.65829 13.0488 7.85355 12.8536L7.5 12.5ZM1.53553 6.53553L1.18198 6.88909L1.18198 6.88909L1.53553 6.53553ZM6.53553 1.53553L6.18198 1.88909L6.18198 1.88909L6.53553 1.53553ZM7.5 2.5L7.14645 2.85355C7.34171 3.04882 7.65829 3.04882 7.85355 2.85355L7.5 2.5ZM8.46447 1.53553L8.11091 1.18198L8.11091 1.18198L8.46447 1.53553ZM7.85355 12.1464L1.88909 6.18198L1.18198 6.88909L7.14645 12.8536L7.85355 12.1464ZM13.1109 6.18198L7.14645 12.1464L7.85355 12.8536L13.818 6.88909L13.1109 6.18198ZM6.18198 1.88909L7.14645 2.85355L7.85355 2.14645L6.88909 1.18198L6.18198 1.88909ZM7.85355 2.85355L8.81802 1.88909L8.11091 1.18198L7.14645 2.14645L7.85355 2.85355ZM10.9645 0C9.89418 0 8.86772 0.425171 8.11091 1.18198L8.81802 1.88909C9.38729 1.31981 10.1594 1 10.9645 1V0ZM14 4.03553C14 4.84061 13.6802 5.61271 13.1109 6.18198L13.818 6.88909C14.5748 6.13228 15 5.10582 15 4.03553H14ZM15 4.03553C15 1.80677 13.1932 0 10.9645 0V1C12.6409 1 14 2.35905 14 4.03553H15ZM4.03553 1C4.84061 1 5.61271 1.31981 6.18198 1.88909L6.88909 1.18198C6.13228 0.425171 5.10582 0 4.03553 0V1ZM1 4.03553C1 2.35905 2.35905 1 4.03553 1V0C1.80677 0 0 1.80677 0 4.03553H1ZM1.88909 6.18198C1.31981 5.61271 1 4.84061 1 4.03553H0C0 5.10582 0.42517 6.13228 1.18198 6.88909L1.88909 6.18198Z" fill="#545A60"/>
</svg>
